<svg width="400" height="300" viewBox="0 0 400 300" fill="none" xmlns="http://www.w3.org/2000/svg">
  <rect width="400" height="300" fill="#f0f9f0"/>
  <rect x="50" y="50" width="300" height="200" rx="8" fill="#489648"/>
  <rect x="70" y="70" width="260" height="160" rx="4" fill="#65b365"/>
  
  <!-- Building outline -->
  <rect x="80" y="180" width="240" height="50" fill="#2c602c"/>
  <rect x="90" y="190" width="220" height="30" fill="#377937"/>
  
  <!-- Grass texture -->
  <g opacity="0.7">
    <line x1="100" y1="80" x2="100" y2="170" stroke="#377937" stroke-width="2"/>
    <line x1="120" y1="85" x2="120" y2="175" stroke="#377937" stroke-width="2"/>
    <line x1="140" y1="80" x2="140" y2="170" stroke="#377937" stroke-width="2"/>
    <line x1="160" y1="85" x2="160" y2="175" stroke="#377937" stroke-width="2"/>
    <line x1="180" y1="80" x2="180" y2="170" stroke="#377937" stroke-width="2"/>
    <line x1="200" y1="85" x2="200" y2="175" stroke="#377937" stroke-width="2"/>
    <line x1="220" y1="80" x2="220" y2="170" stroke="#377937" stroke-width="2"/>
    <line x1="240" y1="85" x2="240" y2="175" stroke="#377937" stroke-width="2"/>
    <line x1="260" y1="80" x2="260" y2="170" stroke="#377937" stroke-width="2"/>
    <line x1="280" y1="85" x2="280" y2="175" stroke="#377937" stroke-width="2"/>
    <line x1="300" y1="80" x2="300" y2="170" stroke="#377937" stroke-width="2"/>
  </g>
  
  <!-- Text -->
  <text x="200" y="260" text-anchor="middle" fill="#2c602c" font-family="Arial, sans-serif" font-size="16" font-weight="bold">Modern Dakterras</text>
  <text x="200" y="280" text-anchor="middle" fill="#666666" font-family="Arial, sans-serif" font-size="12">Amsterdam</text>
</svg>